<svg xmlns="http://www.w3.org/2000/svg" width="364" height="364" version="1.0"><path d="M81.72 2.507h40v40h-40v-40zM121.72 2.507h40v40h-40v-40zM201.721 82.507h40v40h-40v-40zM161.72 42.507h40v40h-40v-40z" fill="#fff" stroke="#000" stroke-width="2"/><path d="M176.033 72.091v-2.515c.693.328 1.395.578 2.106.752.71.173 1.408.26 2.092.26 1.823 0 3.215-.614 4.176-1.84.962-1.225 1.511-3.087 1.648-5.584a5.372 5.372 0 01-2.01 1.804c-.811.42-1.709.63-2.693.63-2.042 0-3.657-.618-4.847-1.853-1.19-1.235-1.784-2.924-1.784-5.066 0-2.096.62-3.778 1.86-5.045 1.239-1.267 2.889-1.9 4.948-1.9 2.361 0 4.164.905 5.408 2.714 1.244 1.809 1.866 4.436 1.866 7.882 0 3.217-.763 5.785-2.29 7.704-1.527 1.918-3.58 2.878-6.16 2.878a11.13 11.13 0 01-2.105-.205c-.71-.137-1.449-.342-2.215-.616zm5.496-8.654c1.24 0 2.222-.424 2.947-1.271.724-.848 1.087-2.01 1.087-3.487 0-1.467-.363-2.627-1.087-3.48-.725-.851-1.707-1.278-2.947-1.278s-2.221.427-2.946 1.279c-.724.852-1.087 2.012-1.087 3.48 0 1.476.363 2.638 1.087 3.486.725.847 1.707 1.271 2.946 1.271z" font-size="28"/><path d="M121.72 42.507h40v40h-40v-40z" fill="#fff" stroke="#000" stroke-width="2"/><path d="M136.43 70.191h4.512V54.619l-4.909.984v-2.516l4.881-.984h2.762v18.088h4.512v2.324H136.43v-2.324z" font-size="28"/><path d="M201.721 42.507h40v40h-40v-40z" fill="#fff" stroke="#000" stroke-width="2"/><path d="M215.979 52.103h10.841v2.324h-8.312v5.004c.401-.137.802-.24 1.203-.307a7.15 7.15 0 011.203-.103c2.279 0 4.084.624 5.414 1.873 1.331 1.249 1.996 2.94 1.996 5.072 0 2.197-.683 3.904-2.05 5.12-1.368 1.217-3.295 1.826-5.784 1.826-.856 0-1.73-.073-2.618-.22a20.877 20.877 0 01-2.755-.655V69.26c.82.447 1.668.78 2.543.998.875.22 1.8.328 2.776.328 1.577 0 2.825-.414 3.746-1.244.92-.83 1.38-1.955 1.38-3.377 0-1.422-.46-2.547-1.38-3.377-.92-.829-2.17-1.244-3.746-1.244-.739 0-1.475.082-2.208.246-.734.164-1.484.42-2.25.766V52.103z" font-size="28"/><path d="M1.72 2.507h40v40h-40v-40z" fill="#fff" stroke="#000" stroke-width="2"/><path d="M15.979 12.103H26.82v2.324h-8.313v5.004c.401-.137.802-.24 1.203-.307a7.15 7.15 0 011.203-.103c2.279 0 4.084.624 5.414 1.873 1.331 1.249 1.996 2.94 1.996 5.072 0 2.197-.683 3.904-2.05 5.12-1.368 1.217-3.295 1.826-5.784 1.826-.856 0-1.729-.073-2.618-.22a20.877 20.877 0 01-2.755-.655V29.26c.82.447 1.668.78 2.543.998.875.22 1.8.328 2.776.328 1.577 0 2.825-.414 3.746-1.244.92-.83 1.38-1.955 1.38-3.377 0-1.422-.46-2.547-1.38-3.377-.92-.829-2.17-1.244-3.746-1.244-.739 0-1.475.082-2.208.246-.734.164-1.484.42-2.25.766V12.103z" font-size="28"/><path d="M81.72 42.507h40v40h-40v-40zM41.72 2.507h40v40h-40v-40z" fill="#fff" stroke="#000" stroke-width="2"/><path d="M64.319 21.51c1.321.282 2.353.87 3.096 1.763.743.893 1.114 1.996 1.114 3.309 0 2.014-.692 3.572-2.078 4.675-1.385 1.103-3.354 1.655-5.906 1.655-.857 0-1.739-.085-2.645-.253a19.175 19.175 0 01-2.81-.76v-2.665a9.568 9.568 0 002.516 1.012 11.74 11.74 0 002.857.341c1.732 0 3.051-.341 3.958-1.025.907-.684 1.36-1.677 1.36-2.98 0-1.204-.421-2.145-1.264-2.824-.843-.679-2.017-1.018-3.52-1.018h-2.38v-2.27h2.489c1.358 0 2.397-.27 3.117-.813.72-.543 1.08-1.324 1.08-2.345 0-1.048-.372-1.852-1.114-2.413-.743-.56-1.807-.84-3.193-.84-.756 0-1.567.081-2.433.245-.866.164-1.819.42-2.858.766v-2.461a26.72 26.72 0 012.947-.656 16.52 16.52 0 012.59-.22c2.097 0 3.756.477 4.977 1.43 1.221.952 1.832 2.24 1.832 3.862 0 1.13-.324 2.085-.97 2.864-.648.78-1.568 1.32-2.762 1.62z" font-size="28"/><path d="M161.72 82.507h40v40h-40v-40zM1.72 122.507h40v40h-40v-40z" fill="#fff" stroke="#000" stroke-width="2"/><path d="M21.858 142.822c-1.313 0-2.345.35-3.097 1.053-.752.701-1.128 1.668-1.128 2.898 0 1.23.376 2.197 1.128 2.898.752.702 1.784 1.053 3.097 1.053 1.312 0 2.347-.353 3.103-1.06.757-.706 1.135-1.67 1.135-2.891 0-1.23-.376-2.197-1.128-2.898-.752-.702-1.789-1.053-3.11-1.053zm-2.762-1.176c-1.185-.292-2.108-.843-2.769-1.654-.66-.811-.99-1.8-.99-2.967 0-1.632.58-2.921 1.742-3.87 1.162-.947 2.755-1.421 4.779-1.421 2.032 0 3.627.474 4.785 1.422 1.157.948 1.736 2.237 1.736 3.869 0 1.167-.33 2.156-.991 2.967-.66.811-1.58 1.362-2.755 1.654 1.33.31 2.367.916 3.11 1.818.743.903 1.115 2.006 1.115 3.309 0 1.978-.604 3.495-1.812 4.553-1.208 1.057-2.937 1.586-5.188 1.586-2.252 0-3.981-.529-5.189-1.586-1.208-1.058-1.811-2.575-1.811-4.553 0-1.303.373-2.406 1.12-3.309.748-.902 1.787-1.508 3.118-1.818zm-1.012-4.361c0 1.057.33 1.882.991 2.474.661.593 1.589.889 2.783.889 1.184 0 2.112-.296 2.782-.889.67-.592 1.005-1.417 1.005-2.474 0-1.058-.335-1.882-1.005-2.475-.67-.592-1.598-.889-2.782-.889-1.194 0-2.122.297-2.783.89-.66.592-.99 1.416-.99 2.474z" font-size="28"/><path d="M321.72 162.507h40v40h-40v-40z" fill="#fff" stroke="#000" stroke-width="2"/><path d="M336.43 190.191h4.512v-15.572l-4.909.984v-2.516l4.881-.984h2.762v18.088h4.512v2.324H336.43v-2.324z" font-size="28"/><path d="M321.72 82.507h40v40h-40v-40zM281.72 82.507h40v40h-40v-40z" fill="#fff" stroke="#000" stroke-width="2"/><path d="M302.2 101.209c-1.24 0-2.222.423-2.947 1.271-.725.848-1.087 2.01-1.087 3.486 0 1.468.362 2.628 1.087 3.48.725.852 1.707 1.278 2.946 1.278 1.24 0 2.222-.426 2.947-1.278.724-.852 1.087-2.012 1.087-3.48 0-1.476-.363-2.638-1.087-3.486-.725-.848-1.707-1.271-2.947-1.271zm5.482-8.655v2.516a11.037 11.037 0 00-2.099-.752 8.791 8.791 0 00-2.098-.26c-1.823 0-3.216.615-4.177 1.846-.962 1.23-1.511 3.09-1.648 5.578a5.498 5.498 0 012.024-1.825c.811-.424 1.704-.636 2.68-.636 2.05 0 3.67.622 4.86 1.866 1.19 1.244 1.784 2.937 1.784 5.08 0 2.096-.62 3.777-1.86 5.044-1.239 1.267-2.889 1.9-4.949 1.9-2.36 0-4.165-.904-5.414-2.713-1.248-1.81-1.873-4.432-1.873-7.868 0-3.227.766-5.8 2.297-7.718 1.531-1.919 3.587-2.878 6.166-2.878.693 0 1.392.068 2.099.205.706.137 1.442.342 2.208.615z" font-size="28"/><path d="M41.72 202.507h40v40h-40v-40zM41.72 42.507h40v40h-40v-40zM241.72 82.507h40v40h-40l.001-40zM121.72 82.507h40v40h-40v-40zM281.72 162.507h40v40h-40v-40zM1.72 202.507h40v40h-40v-40z" fill="#fff" stroke="#000" stroke-width="2"/><path d="M15.254 212.103H28.38v1.176l-7.41 19.236h-2.885l6.973-18.088h-9.803v-2.324z" font-size="28"/><path d="M1.72 282.507h40v40h-40v-40zM41.72 282.507h40v40h-40v-40zM321.72 242.507h40v40h-40v-40zM121.72 282.507h40v40h-40v-40z" fill="#fff" stroke="#000" stroke-width="2"/><path d="M143.54 294.51l-6.973 10.896h6.972v-10.897zm-.725-2.407h3.472v13.303h2.912v2.297h-2.912v4.812h-2.748v-4.812h-9.215v-2.666l8.49-12.934z" font-size="28"/><path d="M241.72 162.507h40v40h-40v-40zM281.72 242.507h40v40h-40v-40z" fill="#fff" stroke="#000" stroke-width="2"/><path d="M301.858 262.822c-1.313 0-2.345.35-3.097 1.053-.752.701-1.128 1.668-1.128 2.898 0 1.23.376 2.197 1.128 2.898.752.702 1.784 1.053 3.097 1.053 1.312 0 2.347-.353 3.103-1.06.757-.706 1.135-1.67 1.135-2.891 0-1.23-.376-2.197-1.128-2.898-.752-.702-1.789-1.053-3.11-1.053zm-2.762-1.176c-1.185-.292-2.108-.843-2.769-1.654-.66-.811-.99-1.8-.99-2.967 0-1.632.58-2.921 1.742-3.87 1.162-.947 2.755-1.421 4.779-1.421 2.032 0 3.627.474 4.785 1.422 1.157.948 1.736 2.237 1.736 3.869 0 1.167-.33 2.156-.991 2.967-.66.811-1.58 1.362-2.755 1.654 1.33.31 2.367.916 3.11 1.818.743.903 1.115 2.006 1.115 3.309 0 1.978-.604 3.495-1.812 4.553-1.208 1.057-2.937 1.586-5.188 1.586-2.252 0-3.981-.529-5.189-1.586-1.208-1.058-1.811-2.575-1.811-4.553 0-1.303.373-2.406 1.12-3.309.748-.902 1.787-1.508 3.118-1.818zm-1.012-4.361c0 1.057.33 1.882.991 2.474.661.593 1.589.889 2.783.889 1.184 0 2.112-.296 2.782-.889.67-.592 1.005-1.417 1.005-2.474 0-1.058-.335-1.882-1.005-2.475-.67-.592-1.598-.889-2.782-.889-1.194 0-2.122.297-2.783.89-.66.592-.99 1.416-.99 2.474z" font-size="28"/><path d="M201.721 162.507h40v40h-40v-40z" fill="#fff" stroke="#000" stroke-width="2"/><path d="M224.319 181.51c1.321.282 2.353.87 3.096 1.763.743.893 1.114 1.996 1.114 3.309 0 2.014-.692 3.573-2.078 4.675-1.385 1.103-3.354 1.655-5.906 1.655-.857 0-1.739-.085-2.645-.253a19.175 19.175 0 01-2.81-.759v-2.666a9.568 9.568 0 002.516 1.012 11.74 11.74 0 002.857.341c1.732 0 3.051-.341 3.958-1.025.907-.684 1.36-1.677 1.36-2.98 0-1.203-.421-2.145-1.264-2.824-.843-.679-2.017-1.018-3.52-1.018h-2.38v-2.27h2.489c1.358 0 2.397-.27 3.117-.813.72-.542 1.08-1.324 1.08-2.345 0-1.048-.372-1.852-1.114-2.413-.743-.56-1.807-.84-3.193-.84-.756 0-1.567.081-2.433.245-.866.164-1.819.42-2.858.766v-2.461a26.72 26.72 0 012.947-.656 16.52 16.52 0 012.59-.219c2.097 0 3.756.476 4.977 1.429 1.221.952 1.832 2.24 1.832 3.862 0 1.13-.324 2.085-.97 2.864-.648.78-1.568 1.32-2.762 1.62z" font-size="28"/><path d="M201.72 2.507h40v40h-40v-40zM241.72 2.507h40v40h-40l.001-40zM161.721 122.507h40v40h-40v-40z" fill="#fff" stroke="#000" stroke-width="2"/><path d="M182.2 141.209c-1.24 0-2.222.423-2.947 1.271-.725.848-1.087 2.01-1.087 3.486 0 1.468.362 2.628 1.087 3.48.725.852 1.707 1.278 2.946 1.278 1.24 0 2.222-.426 2.947-1.278.724-.852 1.087-2.012 1.087-3.48 0-1.476-.363-2.638-1.087-3.486-.725-.848-1.707-1.271-2.947-1.271zm5.482-8.655v2.516a11.037 11.037 0 00-2.099-.752 8.791 8.791 0 00-2.098-.26c-1.823 0-3.216.615-4.177 1.846-.962 1.23-1.511 3.09-1.648 5.578a5.498 5.498 0 012.024-1.825c.811-.424 1.704-.636 2.68-.636 2.05 0 3.67.622 4.86 1.866 1.19 1.244 1.784 2.937 1.784 5.08 0 2.096-.62 3.777-1.86 5.044-1.239 1.267-2.889 1.9-4.949 1.9-2.36 0-4.165-.904-5.414-2.713-1.248-1.81-1.873-4.432-1.873-7.868 0-3.227.766-5.8 2.297-7.718 1.531-1.919 3.587-2.878 6.166-2.878.693 0 1.392.068 2.099.205.706.137 1.442.342 2.208.615z" font-size="28"/><path d="M321.72 42.507h40v40h-40v-40zM281.72 42.507h40v40h-40v-40zM241.72 122.507h40v40h-40l.001-40zM161.72 2.507h40v40h-40v-40z" fill="#fff" stroke="#000" stroke-width="2"/><path d="M175.254 12.103h13.125v1.176l-7.41 19.236h-2.885l6.973-18.088h-9.803v-2.324z" font-size="28"/><path d="M81.72 122.507h40v40h-40v-40zM241.72 42.507h40v40h-40l.001-40zM121.72 122.507h40v40h-40v-40zM201.721 122.507h40v40h-40v-40zM321.72 202.507h40v40h-40v-40z" fill="#fff" stroke="#000" stroke-width="2"/><path d="M342.2 221.209c-1.24 0-2.222.423-2.947 1.271-.725.848-1.087 2.01-1.087 3.486 0 1.468.362 2.628 1.087 3.48.725.852 1.707 1.278 2.946 1.278 1.24 0 2.222-.426 2.947-1.278.724-.852 1.087-2.012 1.087-3.48 0-1.476-.363-2.638-1.087-3.486-.725-.848-1.707-1.271-2.947-1.271zm5.482-8.655v2.516a11.037 11.037 0 00-2.099-.752 8.791 8.791 0 00-2.098-.26c-1.823 0-3.216.615-4.177 1.846-.962 1.23-1.511 3.09-1.648 5.578a5.498 5.498 0 012.024-1.825c.811-.424 1.704-.636 2.68-.636 2.05 0 3.67.622 4.86 1.866 1.19 1.244 1.784 2.937 1.784 5.08 0 2.096-.62 3.777-1.86 5.044-1.239 1.267-2.889 1.9-4.949 1.9-2.36 0-4.165-.904-5.414-2.713-1.248-1.81-1.873-4.432-1.873-7.868 0-3.227.766-5.8 2.297-7.718 1.531-1.919 3.587-2.878 6.166-2.878.693 0 1.392.068 2.099.205.706.137 1.442.342 2.208.615z" font-size="28"/><path d="M161.72 202.507h40v40h-40v-40z" fill="#fff" stroke="#000" stroke-width="2"/><path d="M178.33 230.191h9.639v2.324h-12.961v-2.324a534.37 534.37 0 014.286-4.368c1.81-1.828 2.946-3.006 3.411-3.534.884-.994 1.502-1.835 1.853-2.523.35-.688.526-1.365.526-2.03 0-1.085-.38-1.969-1.141-2.652-.762-.684-1.753-1.026-2.974-1.026-.866 0-1.78.15-2.741.451-.962.301-1.99.757-3.083 1.368v-2.79a21.943 21.943 0 013.117-1.011c.966-.228 1.85-.342 2.652-.342 2.115 0 3.801.529 5.059 1.586s1.887 2.47 1.887 4.238c0 .839-.158 1.634-.472 2.386-.315.752-.887 1.638-1.716 2.66-.228.263-.952 1.027-2.174 2.29a1240.343 1240.343 0 01-5.168 5.297z" font-size="28"/><path d="M121.72 202.507h40v40h-40v-40zM1.72 242.507h40v40h-40v-40zM41.72 122.507h40v40h-40v-40zM281.72 202.507h40v40h-40v-40zM81.72 202.507h40v40h-40v-40zM81.72 282.507h40v40h-40v-40zM1.72 322.507h40v40h-40v-40zM281.72 282.507h40v40h-40v-40zM321.72 282.507h40v40h-40v-40z" fill="#fff" stroke="#000" stroke-width="2"/><path d="M335.979 292.103h10.841v2.324h-8.312v5.004c.401-.136.802-.239 1.203-.307a7.15 7.15 0 011.203-.103c2.279 0 4.084.624 5.414 1.873 1.331 1.249 1.996 2.94 1.996 5.072 0 2.197-.683 3.904-2.05 5.12-1.368 1.217-3.295 1.826-5.784 1.826-.856 0-1.73-.073-2.618-.219a20.877 20.877 0 01-2.755-.656v-2.776c.82.447 1.668.78 2.543.998.875.22 1.8.328 2.776.328 1.577 0 2.825-.414 3.746-1.244.92-.83 1.38-1.955 1.38-3.377 0-1.421-.46-2.547-1.38-3.377-.92-.829-2.17-1.244-3.746-1.244-.739 0-1.475.082-2.208.246-.734.164-1.484.42-2.25.766v-10.254z" font-size="28"/><path d="M241.72 282.507h40v40h-40l.001-40zM41.72 322.507h40v40h-40v-40zM241.72 202.507h40v40h-40v-40z" fill="#fff" stroke="#000" stroke-width="2"/><path d="M201.721 282.507h40v40h-40v-40z" fill="#fff" stroke="#000" stroke-width="2"/><path d="M216.033 312.091v-2.515c.693.328 1.395.579 2.106.752.71.173 1.408.26 2.092.26 1.823 0 3.215-.613 4.176-1.84.962-1.225 1.511-3.087 1.648-5.584a5.372 5.372 0 01-2.01 1.804c-.811.42-1.709.63-2.693.63-2.042 0-3.657-.618-4.847-1.853-1.19-1.235-1.784-2.924-1.784-5.066 0-2.096.62-3.778 1.86-5.045 1.239-1.267 2.889-1.9 4.948-1.9 2.361 0 4.164.905 5.408 2.714 1.244 1.81 1.866 4.436 1.866 7.882 0 3.217-.763 5.785-2.29 7.704-1.527 1.918-3.58 2.878-6.16 2.878a11.13 11.13 0 01-2.105-.205c-.71-.137-1.449-.342-2.215-.616zm5.496-8.654c1.24 0 2.222-.424 2.947-1.271.724-.848 1.087-2.01 1.087-3.487 0-1.467-.363-2.627-1.087-3.48-.725-.851-1.707-1.278-2.947-1.278s-2.221.427-2.946 1.279c-.724.852-1.087 2.012-1.087 3.48 0 1.476.363 2.638 1.087 3.486.725.847 1.707 1.271 2.946 1.271z" font-size="28"/><path d="M161.721 282.507h40v40h-40v-40z" fill="#fff" stroke="#000" stroke-width="2"/><path d="M176.43 310.191h4.512v-15.572l-4.909.984v-2.516l4.881-.984h2.762v18.088h4.512v2.324H176.43v-2.324z" font-size="28"/><path d="M321.72 2.507h40v40h-40v-40zM1.72 42.507h40v40h-40v-40z" fill="#fff" stroke="#000" stroke-width="2"/><path d="M22.2 61.209c-1.24 0-2.222.423-2.947 1.271-.724.848-1.087 2.01-1.087 3.486 0 1.468.363 2.628 1.087 3.48.725.852 1.707 1.278 2.946 1.278 1.24 0 2.222-.426 2.947-1.278.724-.852 1.087-2.012 1.087-3.48 0-1.476-.363-2.638-1.087-3.486-.725-.848-1.707-1.271-2.947-1.271zm5.482-8.655v2.516a11.037 11.037 0 00-2.099-.752 8.791 8.791 0 00-2.098-.26c-1.823 0-3.216.615-4.177 1.846-.962 1.23-1.51 3.09-1.648 5.578a5.498 5.498 0 012.024-1.825c.811-.424 1.704-.636 2.68-.636 2.05 0 3.67.622 4.86 1.866 1.19 1.244 1.784 2.937 1.784 5.08 0 2.096-.62 3.777-1.86 5.044-1.239 1.267-2.889 1.9-4.949 1.9-2.36 0-4.165-.904-5.414-2.713-1.248-1.81-1.873-4.432-1.873-7.868 0-3.227.766-5.8 2.297-7.718 1.531-1.919 3.587-2.878 6.166-2.878.693 0 1.392.068 2.099.205.706.137 1.442.342 2.208.615z" font-size="28"/><path d="M41.72 162.507h40v40h-40v-40zM81.72 82.507h40v40h-40v-40z" fill="#fff" stroke="#000" stroke-width="2"/><path d="M101.858 102.822c-1.313 0-2.345.35-3.097 1.053-.752.701-1.128 1.668-1.128 2.898 0 1.23.376 2.197 1.128 2.898.752.702 1.784 1.053 3.097 1.053 1.312 0 2.347-.353 3.103-1.06.757-.706 1.135-1.67 1.135-2.891 0-1.23-.376-2.197-1.128-2.898-.752-.702-1.789-1.053-3.11-1.053zm-2.762-1.176c-1.185-.292-2.108-.843-2.769-1.654-.66-.811-.99-1.8-.99-2.967 0-1.632.58-2.921 1.742-3.87 1.162-.947 2.755-1.421 4.779-1.421 2.032 0 3.627.474 4.785 1.422 1.157.948 1.736 2.237 1.736 3.869 0 1.167-.33 2.156-.991 2.967-.66.81-1.58 1.362-2.755 1.654 1.33.31 2.368.916 3.11 1.818.743.903 1.115 2.006 1.115 3.309 0 1.978-.604 3.495-1.812 4.553-1.208 1.057-2.937 1.586-5.188 1.586-2.252 0-3.981-.529-5.189-1.586-1.208-1.058-1.811-2.575-1.811-4.553 0-1.303.373-2.406 1.12-3.309.748-.902 1.787-1.508 3.118-1.818zm-1.012-4.361c0 1.057.33 1.882.991 2.474.661.593 1.589.889 2.783.889 1.185 0 2.112-.296 2.782-.889.67-.592 1.005-1.417 1.005-2.474 0-1.058-.335-1.882-1.005-2.475-.67-.592-1.597-.889-2.782-.889-1.194 0-2.122.297-2.783.89-.66.592-.99 1.416-.99 2.474z" font-size="28"/><path d="M41.72 82.507h40v40h-40v-40z" fill="#fff" stroke="#000" stroke-width="2"/><path d="M56.033 112.091v-2.515c.693.328 1.395.579 2.106.752.71.173 1.408.26 2.092.26 1.823 0 3.215-.614 4.176-1.84.962-1.225 1.511-3.087 1.648-5.584a5.372 5.372 0 01-2.01 1.804c-.811.42-1.709.63-2.693.63-2.042 0-3.657-.618-4.847-1.853-1.19-1.235-1.784-2.924-1.784-5.066 0-2.096.62-3.778 1.86-5.045 1.239-1.267 2.889-1.9 4.948-1.9 2.361 0 4.164.905 5.408 2.714 1.244 1.809 1.866 4.436 1.866 7.882 0 3.217-.763 5.785-2.29 7.704-1.527 1.918-3.58 2.878-6.16 2.878a11.13 11.13 0 01-2.105-.205c-.71-.137-1.449-.342-2.215-.616zm5.496-8.654c1.24 0 2.222-.424 2.947-1.271.724-.848 1.087-2.01 1.087-3.487 0-1.467-.363-2.627-1.087-3.48-.725-.851-1.707-1.278-2.947-1.278s-2.221.427-2.946 1.279c-.724.852-1.087 2.012-1.087 3.48 0 1.476.363 2.638 1.087 3.486.725.847 1.707 1.271 2.946 1.271z" font-size="28"/><path d="M81.72 162.507h40v40h-40v-40zM281.72 2.507h40v40h-40v-40zM321.72 122.507h40v40h-40v-40z" fill="#fff" stroke="#000" stroke-width="2"/><path d="M344.319 141.51c1.321.282 2.353.87 3.096 1.763.743.893 1.114 1.996 1.114 3.309 0 2.014-.692 3.573-2.078 4.675-1.385 1.103-3.354 1.655-5.906 1.655-.857 0-1.739-.085-2.645-.253a19.175 19.175 0 01-2.81-.759v-2.666a9.568 9.568 0 002.516 1.012 11.74 11.74 0 002.857.341c1.732 0 3.051-.341 3.958-1.025.907-.684 1.36-1.677 1.36-2.98 0-1.203-.421-2.145-1.264-2.824-.843-.679-2.017-1.018-3.52-1.018h-2.38v-2.27h2.489c1.358 0 2.397-.27 3.117-.813.72-.542 1.08-1.324 1.08-2.345 0-1.048-.372-1.852-1.114-2.413-.743-.56-1.807-.84-3.193-.84-.756 0-1.567.081-2.433.245-.866.164-1.819.42-2.858.766v-2.461a26.72 26.72 0 012.947-.656 16.52 16.52 0 012.59-.219c2.097 0 3.756.476 4.977 1.429 1.221.952 1.832 2.24 1.832 3.862 0 1.13-.324 2.085-.97 2.864-.648.78-1.568 1.32-2.762 1.62z" font-size="28"/><path d="M1.72 82.507h40v40h-40v-40zM1.72 162.507h40v40h-40v-40z" fill="#fff" stroke="#000" stroke-width="2"/><path d="M23.54 174.51l-6.973 10.896h6.972v-10.897zm-.725-2.407h3.472v13.303H29.2v2.297h-2.912v4.812H23.54v-4.812h-9.215v-2.666l8.49-12.934z" font-size="28"/><path d="M161.721 162.507h40v40h-40v-40zM201.721 242.507h40v40h-40v-40zM121.72 162.507h40v40h-40v-40z" fill="#fff" stroke="#000" stroke-width="2"/><path d="M141.858 182.822c-1.313 0-2.345.35-3.097 1.053-.752.701-1.128 1.668-1.128 2.898 0 1.23.376 2.197 1.128 2.898.752.702 1.784 1.053 3.097 1.053 1.312 0 2.347-.353 3.103-1.06.757-.706 1.135-1.67 1.135-2.891 0-1.23-.376-2.197-1.128-2.898-.752-.702-1.789-1.053-3.11-1.053zm-2.762-1.176c-1.185-.292-2.108-.843-2.769-1.654-.66-.811-.99-1.8-.99-2.967 0-1.632.58-2.921 1.742-3.87 1.162-.947 2.755-1.421 4.779-1.421 2.032 0 3.627.474 4.785 1.422 1.157.948 1.736 2.237 1.736 3.869 0 1.167-.33 2.156-.991 2.967-.66.811-1.58 1.362-2.755 1.654 1.33.31 2.367.916 3.11 1.818.743.903 1.115 2.006 1.115 3.309 0 1.978-.604 3.495-1.812 4.553-1.208 1.057-2.937 1.586-5.188 1.586-2.252 0-3.981-.529-5.189-1.586-1.208-1.058-1.811-2.575-1.811-4.553 0-1.303.373-2.406 1.12-3.309.748-.902 1.787-1.508 3.118-1.818zm-1.012-4.361c0 1.057.33 1.882.991 2.474.661.593 1.589.889 2.783.889 1.184 0 2.112-.296 2.782-.889.67-.592 1.005-1.417 1.005-2.474 0-1.058-.335-1.882-1.005-2.475-.67-.592-1.598-.889-2.782-.889-1.194 0-2.122.297-2.783.89-.66.592-.99 1.416-.99 2.474z" font-size="28"/><path d="M81.72 242.507h40v40h-40v-40zM241.72 242.507h40v40h-40l.001-40z" fill="#fff" stroke="#000" stroke-width="2"/><path d="M258.33 270.191h9.639v2.324h-12.961v-2.324a534.37 534.37 0 014.286-4.368c1.81-1.828 2.946-3.006 3.411-3.534.884-.994 1.502-1.835 1.853-2.523.35-.688.526-1.365.526-2.03 0-1.085-.38-1.969-1.141-2.652-.762-.684-1.753-1.026-2.974-1.026-.866 0-1.78.15-2.741.451-.962.301-1.99.757-3.083 1.368v-2.79a21.943 21.943 0 013.117-1.011c.966-.228 1.85-.342 2.652-.342 2.115 0 3.801.529 5.059 1.586s1.887 2.47 1.887 4.238c0 .839-.158 1.634-.472 2.386-.315.752-.887 1.638-1.716 2.66-.228.263-.952 1.027-2.174 2.29a1240.343 1240.343 0 01-5.168 5.297z" font-size="28"/><path d="M281.72 122.507h40v40h-40v-40zM41.72 242.507h40v40h-40v-40z" fill="#fff" stroke="#000" stroke-width="2"/><path d="M62.2 261.209c-1.24 0-2.222.423-2.947 1.271-.724.848-1.087 2.01-1.087 3.486 0 1.468.363 2.628 1.087 3.48.725.852 1.707 1.278 2.946 1.278 1.24 0 2.222-.426 2.947-1.278.724-.852 1.087-2.012 1.087-3.48 0-1.476-.363-2.638-1.087-3.486-.725-.848-1.707-1.271-2.947-1.271zm5.482-8.655v2.516a11.037 11.037 0 00-2.099-.752 8.791 8.791 0 00-2.098-.26c-1.823 0-3.216.615-4.177 1.846-.962 1.23-1.51 3.09-1.648 5.578a5.498 5.498 0 012.024-1.825c.811-.424 1.704-.636 2.68-.636 2.05 0 3.67.622 4.86 1.866 1.19 1.244 1.784 2.937 1.784 5.08 0 2.096-.62 3.777-1.86 5.044-1.239 1.267-2.889 1.9-4.949 1.9-2.36 0-4.165-.904-5.414-2.713-1.248-1.81-1.873-4.432-1.873-7.868 0-3.227.766-5.8 2.297-7.718 1.531-1.919 3.587-2.878 6.166-2.878.693 0 1.392.068 2.099.205.706.137 1.442.342 2.208.615z" font-size="28"/><path d="M201.721 202.507h40v40h-40v-40zM161.72 242.507h40v40h-40v-40zM281.72 322.507h40v40h-40v-40z" fill="#fff" stroke="#000" stroke-width="2"/><path d="M295.254 332.103h13.125v1.176l-7.41 19.236h-2.885l6.973-18.088h-9.803v-2.324z" font-size="28"/><path d="M201.721 322.507h40v40h-40v-40z" fill="#fff" stroke="#000" stroke-width="2"/><path d="M241.72 322.507h40v40h-40v-40zM161.721 322.507h40v40h-40v-40z" fill="#fff" stroke="#000" stroke-width="2"/><path d="M181.858 342.822c-1.313 0-2.345.35-3.097 1.053-.752.701-1.128 1.668-1.128 2.898 0 1.23.376 2.197 1.128 2.898.752.702 1.784 1.053 3.097 1.053 1.312 0 2.347-.353 3.103-1.06.757-.706 1.135-1.67 1.135-2.891 0-1.23-.376-2.197-1.128-2.898-.752-.702-1.789-1.053-3.11-1.053zm-2.762-1.176c-1.185-.292-2.108-.843-2.769-1.654-.66-.811-.99-1.8-.99-2.967 0-1.632.58-2.921 1.742-3.87 1.162-.947 2.755-1.421 4.779-1.421 2.032 0 3.627.474 4.785 1.422 1.157.948 1.736 2.237 1.736 3.869 0 1.167-.33 2.156-.991 2.967-.66.811-1.58 1.362-2.755 1.654 1.33.31 2.367.916 3.11 1.818.743.903 1.115 2.006 1.115 3.309 0 1.978-.604 3.495-1.812 4.553-1.208 1.057-2.937 1.586-5.188 1.586-2.252 0-3.981-.529-5.189-1.586-1.208-1.058-1.811-2.575-1.811-4.553 0-1.303.373-2.406 1.12-3.309.748-.902 1.787-1.508 3.118-1.818zm-1.012-4.361c0 1.057.33 1.882.991 2.474.661.593 1.589.889 2.783.889 1.184 0 2.112-.296 2.782-.889.67-.592 1.005-1.417 1.005-2.474 0-1.058-.335-1.882-1.005-2.475-.67-.592-1.598-.889-2.782-.889-1.194 0-2.122.297-2.783.89-.66.592-.99 1.416-.99 2.474z" font-size="28"/><path d="M321.72 322.507h40v40h-40v-40z" fill="#fff" stroke="#000" stroke-width="2"/><path d="M336.033 352.091v-2.515c.693.328 1.395.579 2.106.752.71.173 1.408.26 2.092.26 1.823 0 3.215-.613 4.176-1.84.962-1.225 1.511-3.087 1.648-5.584a5.372 5.372 0 01-2.01 1.804c-.811.42-1.709.63-2.693.63-2.042 0-3.657-.618-4.847-1.853-1.19-1.235-1.784-2.924-1.784-5.066 0-2.096.62-3.778 1.86-5.045 1.239-1.267 2.889-1.9 4.948-1.9 2.361 0 4.164.905 5.408 2.714 1.244 1.81 1.866 4.436 1.866 7.882 0 3.217-.763 5.785-2.29 7.704-1.527 1.918-3.58 2.878-6.16 2.878a11.13 11.13 0 01-2.105-.205c-.71-.137-1.449-.342-2.215-.616zm5.496-8.654c1.24 0 2.222-.424 2.947-1.271.724-.848 1.087-2.01 1.087-3.487 0-1.467-.363-2.627-1.087-3.48-.725-.851-1.707-1.278-2.947-1.278s-2.221.427-2.946 1.279c-.724.852-1.087 2.012-1.087 3.48 0 1.476.363 2.638 1.087 3.486.725.847 1.707 1.271 2.946 1.271z" font-size="28"/><path d="M121.72 242.507h40v40h-40v-40zM121.72 322.507h40v40h-40v-40zM81.72 322.507h40v40h-40v-40z" fill="#fff" stroke="#000" stroke-width="2"/><path d="M122 2h120v120H122V2zM242 2h120v120H242V2zM122 242h120v120H122V242zM2 2h120v120H2V2zM122 122h120v120H122V122zM2 242h120v120H2V242zM2 122h120v120H2V122zM242 122h120v120H242V122zM242 242h120v120H242V242z" fill="none" stroke="#000" stroke-width="4"/></svg>