<svg width="206pt" height="260pt" viewBox="0 0 206 260" xmlns="http://www.w3.org/2000/svg"><g class="graph" transform="translate(4 256)"><g class="node"><ellipse fill="#fff" stroke="#fff" cx="63" cy="-234" rx="27" ry="18"/><text text-anchor="middle" x="63" y="-229.8" font-family="Times,serif" font-size="14">+</text></g><g class="node"><ellipse fill="#fff" stroke="#fff" cx="27" cy="-162" rx="27" ry="18"/><text text-anchor="middle" x="27" y="-157.8" font-family="Times,serif" font-size="14">a</text></g><g class="edge"><path fill="none" stroke="#fff" d="M54.285-216.57l-18.65 37.301"/></g><g class="node"><ellipse fill="#fff" stroke="#fff" cx="99" cy="-162" rx="27" ry="18"/><text text-anchor="middle" x="99" y="-157.8" font-family="Times,serif" font-size="14">*</text></g><g class="edge"><path fill="none" stroke="#fff" d="M71.715-216.57l18.65 37.301"/></g><g class="node"><ellipse fill="#fff" stroke="#fff" cx="63" cy="-90" rx="27" ry="18"/><text text-anchor="middle" x="63" y="-85.8" font-family="Times,serif" font-size="14">2</text></g><g class="edge"><path fill="none" stroke="#fff" d="M90.285-144.57l-18.65 37.301"/></g><g class="node"><ellipse fill="#fff" stroke="#fff" cx="135" cy="-90" rx="27" ry="18"/><text text-anchor="middle" x="135" y="-85.8" font-family="Times,serif" font-size="14">-</text></g><g class="edge"><path fill="none" stroke="#fff" d="M107.715-144.57l18.65 37.301"/></g><g class="node"><ellipse fill="#fff" stroke="#fff" cx="99" cy="-18" rx="27" ry="18"/><text text-anchor="middle" x="99" y="-13.8" font-family="Times,serif" font-size="14">4</text></g><g class="edge"><path fill="none" stroke="#fff" d="M126.285-72.57l-18.65 37.301"/></g><g class="node"><ellipse fill="#fff" stroke="#fff" cx="171" cy="-18" rx="27" ry="18"/><text text-anchor="middle" x="171" y="-13.8" font-family="Times,serif" font-size="14">1</text></g><g class="edge"><path fill="none" stroke="#fff" d="M143.715-72.57l18.65 37.301"/></g></g></svg>