<?xml version="1.0" encoding="UTF-8" standalone="no"?>
<!DOCTYPE svg PUBLIC "-//W3C//DTD SVG 1.1//EN"
 "http://www.w3.org/Graphics/SVG/1.1/DTD/svg11.dtd">
<!-- Generated by graphviz version 2.40.1 (20161225.0304)
 -->
<!-- Title: %3 Pages: 1 -->
<svg width="206pt" height="260pt"
 viewBox="0.00 0.00 206.00 260.00" xmlns="http://www.w3.org/2000/svg" xmlns:xlink="http://www.w3.org/1999/xlink">
<g id="graph0" class="graph" transform="scale(1 1) rotate(0) translate(4 256)">
<title>%3</title>
<polygon fill="#ffffff" stroke="transparent" points="-4,4 -4,-256 202,-256 202,4 -4,4"/>
<!-- + -->
<g id="node1" class="node">
<title>+</title>
<ellipse fill="none" stroke="#000000" cx="63" cy="-234" rx="27" ry="18"/>
<text text-anchor="middle" x="63" y="-229.8" font-family="Times,serif" font-size="14.00" fill="#000000">+</text>
</g>
<!-- a -->
<g id="node2" class="node">
<title>a</title>
<ellipse fill="none" stroke="#000000" cx="27" cy="-162" rx="27" ry="18"/>
<text text-anchor="middle" x="27" y="-157.8" font-family="Times,serif" font-size="14.00" fill="#000000">a</text>
</g>
<!-- +&#45;&#45;a -->
<g id="edge1" class="edge">
<title>+&#45;&#45;a</title>
<path fill="none" stroke="#000000" d="M54.2854,-216.5708C48.6253,-205.2506 41.2784,-190.5568 35.6343,-179.2687"/>
</g>
<!-- * -->
<g id="node3" class="node">
<title>*</title>
<ellipse fill="none" stroke="#000000" cx="99" cy="-162" rx="27" ry="18"/>
<text text-anchor="middle" x="99" y="-157.8" font-family="Times,serif" font-size="14.00" fill="#000000">*</text>
</g>
<!-- +&#45;&#45;* -->
<g id="edge2" class="edge">
<title>+&#45;&#45;*</title>
<path fill="none" stroke="#000000" d="M71.7146,-216.5708C77.3747,-205.2506 84.7216,-190.5568 90.3657,-179.2687"/>
</g>
<!-- 2 -->
<g id="node4" class="node">
<title>2</title>
<ellipse fill="none" stroke="#000000" cx="63" cy="-90" rx="27" ry="18"/>
<text text-anchor="middle" x="63" y="-85.8" font-family="Times,serif" font-size="14.00" fill="#000000">2</text>
</g>
<!-- *&#45;&#45;2 -->
<g id="edge3" class="edge">
<title>*&#45;&#45;2</title>
<path fill="none" stroke="#000000" d="M90.2854,-144.5708C84.6253,-133.2506 77.2784,-118.5568 71.6343,-107.2687"/>
</g>
<!-- &#45; -->
<g id="node5" class="node">
<title>&#45;</title>
<ellipse fill="none" stroke="#000000" cx="135" cy="-90" rx="27" ry="18"/>
<text text-anchor="middle" x="135" y="-85.8" font-family="Times,serif" font-size="14.00" fill="#000000">&#45;</text>
</g>
<!-- *&#45;&#45;&#45; -->
<g id="edge4" class="edge">
<title>*&#45;&#45;&#45;</title>
<path fill="none" stroke="#000000" d="M107.7146,-144.5708C113.3747,-133.2506 120.7216,-118.5568 126.3657,-107.2687"/>
</g>
<!-- 4 -->
<g id="node6" class="node">
<title>4</title>
<ellipse fill="none" stroke="#000000" cx="99" cy="-18" rx="27" ry="18"/>
<text text-anchor="middle" x="99" y="-13.8" font-family="Times,serif" font-size="14.00" fill="#000000">4</text>
</g>
<!-- &#45;&#45;&#45;4 -->
<g id="edge5" class="edge">
<title>&#45;&#45;&#45;4</title>
<path fill="none" stroke="#000000" d="M126.2854,-72.5708C120.6253,-61.2506 113.2784,-46.5568 107.6343,-35.2687"/>
</g>
<!-- 1 -->
<g id="node7" class="node">
<title>1</title>
<ellipse fill="none" stroke="#000000" cx="171" cy="-18" rx="27" ry="18"/>
<text text-anchor="middle" x="171" y="-13.8" font-family="Times,serif" font-size="14.00" fill="#000000">1</text>
</g>
<!-- &#45;&#45;&#45;1 -->
<g id="edge6" class="edge">
<title>&#45;&#45;&#45;1</title>
<path fill="none" stroke="#000000" d="M143.7146,-72.5708C149.3747,-61.2506 156.7216,-46.5568 162.3657,-35.2687"/>
</g>
</g>
</svg>
