<?xml version="1.0" encoding="UTF-8" standalone="no"?>
<!DOCTYPE svg PUBLIC "-//W3C//DTD SVG 1.1//EN"
 "http://www.w3.org/Graphics/SVG/1.1/DTD/svg11.dtd">
<!-- Generated by graphviz version 2.40.1 (20161225.0304)
 -->
<!-- Title: %3 Pages: 1 -->
<svg width="185pt" height="646pt"
 viewBox="0.00 0.00 185.35 646.00" xmlns="http://www.w3.org/2000/svg" xmlns:xlink="http://www.w3.org/1999/xlink">
<g id="graph0" class="graph" transform="scale(1 1) rotate(0) translate(4 642)">
<title>%3</title>
<polygon fill="#ffffff" stroke="transparent" points="-4,4 -4,-642 181.3493,-642 181.3493,4 -4,4"/>
<!-- Intermediate code gen -->
<g id="node1" class="node">
<title>Intermediate code gen</title>
<ellipse fill="#add8e6" stroke="#add8e6" cx="88.6746" cy="-276" rx="88.8496" ry="18"/>
<text text-anchor="middle" x="88.6746" y="-271.8" font-family="Times,serif" font-size="14.00" fill="#000000">Intermediate code gen</text>
</g>
<!-- Optimizer -->
<g id="node2" class="node">
<title>Optimizer</title>
<ellipse fill="#add8e6" stroke="#add8e6" cx="88.6746" cy="-190" rx="45.92" ry="18"/>
<text text-anchor="middle" x="88.6746" y="-185.8" font-family="Times,serif" font-size="14.00" fill="#000000">Optimizer</text>
</g>
<!-- Intermediate code gen&#45;&gt;Optimizer -->
<g id="edge5" class="edge">
<title>Intermediate code gen&#45;&gt;Optimizer</title>
<path fill="none" stroke="#000000" d="M88.6746,-257.7616C88.6746,-246.3597 88.6746,-231.4342 88.6746,-218.494"/>
<polygon fill="#000000" stroke="#000000" points="92.1747,-218.2121 88.6746,-208.2121 85.1747,-218.2121 92.1747,-218.2121"/>
<text text-anchor="middle" x="95.6746" y="-228.8" font-family="Times,serif" font-size="14.00" fill="#000000">IR</text>
</g>
<!-- Code gen -->
<g id="node7" class="node">
<title>Code gen</title>
<ellipse fill="none" stroke="#000000" cx="88.6746" cy="-104" rx="43.5083" ry="18"/>
<text text-anchor="middle" x="88.6746" y="-99.8" font-family="Times,serif" font-size="14.00" fill="#000000">Code gen</text>
</g>
<!-- Optimizer&#45;&gt;Code gen -->
<g id="edge6" class="edge">
<title>Optimizer&#45;&gt;Code gen</title>
<path fill="none" stroke="#000000" d="M88.6746,-171.7616C88.6746,-160.3597 88.6746,-145.4342 88.6746,-132.494"/>
<polygon fill="#000000" stroke="#000000" points="92.1747,-132.2121 88.6746,-122.2121 85.1747,-132.2121 92.1747,-132.2121"/>
<text text-anchor="middle" x="126.973" y="-142.8" font-family="Times,serif" font-size="14.00" fill="#000000">Optimized IR</text>
</g>
<!-- Start -->
<g id="node3" class="node">
<title>Start</title>
<ellipse fill="none" stroke="#000000" cx="88.6746" cy="-620" rx="27" ry="18"/>
<text text-anchor="middle" x="88.6746" y="-615.8" font-family="Times,serif" font-size="14.00" fill="#000000">Start</text>
</g>
<!-- Lexer -->
<g id="node4" class="node">
<title>Lexer</title>
<ellipse fill="none" stroke="#000000" cx="88.6746" cy="-534" rx="30.9532" ry="18"/>
<text text-anchor="middle" x="88.6746" y="-529.8" font-family="Times,serif" font-size="14.00" fill="#000000">Lexer</text>
</g>
<!-- Start&#45;&gt;Lexer -->
<g id="edge1" class="edge">
<title>Start&#45;&gt;Lexer</title>
<path fill="none" stroke="#000000" d="M88.6746,-601.7616C88.6746,-590.3597 88.6746,-575.4342 88.6746,-562.494"/>
<polygon fill="#000000" stroke="#000000" points="92.1747,-562.2121 88.6746,-552.2121 85.1747,-562.2121 92.1747,-562.2121"/>
<text text-anchor="middle" x="122.2015" y="-572.8" font-family="Times,serif" font-size="14.00" fill="#000000">Text (Code)</text>
</g>
<!-- Parser -->
<g id="node5" class="node">
<title>Parser</title>
<ellipse fill="none" stroke="#000000" cx="88.6746" cy="-448" rx="32.415" ry="18"/>
<text text-anchor="middle" x="88.6746" y="-443.8" font-family="Times,serif" font-size="14.00" fill="#000000">Parser</text>
</g>
<!-- Lexer&#45;&gt;Parser -->
<g id="edge2" class="edge">
<title>Lexer&#45;&gt;Parser</title>
<path fill="none" stroke="#000000" d="M88.6746,-515.7616C88.6746,-504.3597 88.6746,-489.4342 88.6746,-476.494"/>
<polygon fill="#000000" stroke="#000000" points="92.1747,-476.2121 88.6746,-466.2121 85.1747,-476.2121 92.1747,-476.2121"/>
<text text-anchor="middle" x="126.4774" y="-486.8" font-family="Times,serif" font-size="14.00" fill="#000000">Token stream</text>
</g>
<!-- Semantic Analysis -->
<g id="node6" class="node">
<title>Semantic Analysis</title>
<ellipse fill="none" stroke="#000000" cx="88.6746" cy="-362" rx="75.8893" ry="18"/>
<text text-anchor="middle" x="88.6746" y="-357.8" font-family="Times,serif" font-size="14.00" fill="#000000">Semantic Analysis</text>
</g>
<!-- Parser&#45;&gt;Semantic Analysis -->
<g id="edge3" class="edge">
<title>Parser&#45;&gt;Semantic Analysis</title>
<path fill="none" stroke="#000000" d="M88.6746,-429.7616C88.6746,-418.3597 88.6746,-403.4342 88.6746,-390.494"/>
<polygon fill="#000000" stroke="#000000" points="92.1747,-390.2121 88.6746,-380.2121 85.1747,-390.2121 92.1747,-390.2121"/>
<text text-anchor="middle" x="101.8987" y="-400.8" font-family="Times,serif" font-size="14.00" fill="#000000">AST</text>
</g>
<!-- Semantic Analysis&#45;&gt;Intermediate code gen -->
<g id="edge4" class="edge">
<title>Semantic Analysis&#45;&gt;Intermediate code gen</title>
<path fill="none" stroke="#000000" d="M88.6746,-343.7616C88.6746,-332.3597 88.6746,-317.4342 88.6746,-304.494"/>
<polygon fill="#000000" stroke="#000000" points="92.1747,-304.2121 88.6746,-294.2121 85.1747,-304.2121 92.1747,-304.2121"/>
<text text-anchor="middle" x="101.8987" y="-314.8" font-family="Times,serif" font-size="14.00" fill="#000000">AST</text>
</g>
<!-- End -->
<g id="node8" class="node">
<title>End</title>
<ellipse fill="none" stroke="#000000" cx="88.6746" cy="-18" rx="27" ry="18"/>
<text text-anchor="middle" x="88.6746" y="-13.8" font-family="Times,serif" font-size="14.00" fill="#000000">End</text>
</g>
<!-- Code gen&#45;&gt;End -->
<g id="edge7" class="edge">
<title>Code gen&#45;&gt;End</title>
<path fill="none" stroke="#000000" d="M88.6746,-85.7616C88.6746,-74.3597 88.6746,-59.4342 88.6746,-46.494"/>
<polygon fill="#000000" stroke="#000000" points="92.1747,-46.2121 88.6746,-36.2121 85.1747,-46.2121 92.1747,-46.2121"/>
<text text-anchor="middle" x="121.2923" y="-56.8" font-family="Times,serif" font-size="14.00" fill="#000000">Target code</text>
</g>
</g>
</svg>
