<?xml version="1.0" encoding="UTF-8" standalone="no"?>
<!DOCTYPE svg PUBLIC "-//W3C//DTD SVG 1.1//EN"
 "http://www.w3.org/Graphics/SVG/1.1/DTD/svg11.dtd">
<!-- Generated by graphviz version 2.40.1 (20161225.0304)
 -->
<!-- Title: %3 Pages: 1 -->
<svg width="957pt" height="61pt"
 viewBox="0.00 0.00 957.09 61.46" xmlns="http://www.w3.org/2000/svg" xmlns:xlink="http://www.w3.org/1999/xlink">
<g id="graph0" class="graph" transform="scale(1 1) rotate(0) translate(4 57.4558)">
<title>%3</title>
<polygon fill="#ffffff" stroke="transparent" points="-4,4 -4,-57.4558 953.0894,-57.4558 953.0894,4 -4,4"/>
<!-- Optimizer -->
<g id="node1" class="node">
<title>Optimizer</title>
<ellipse fill="#add8e6" stroke="#add8e6" cx="595.2183" cy="-25.4558" rx="45.92" ry="18"/>
<text text-anchor="middle" x="595.2183" y="-21.2558" font-family="Times,serif" font-size="14.00" fill="#000000">Optimizer</text>
</g>
<!-- Code gen -->
<g id="node6" class="node">
<title>Code gen</title>
<ellipse fill="none" stroke="#000000" cx="780.0284" cy="-25.4558" rx="43.5083" ry="18"/>
<text text-anchor="middle" x="780.0284" y="-21.2558" font-family="Times,serif" font-size="14.00" fill="#000000">Code gen</text>
</g>
<!-- Optimizer&#45;&gt;Code gen -->
<g id="edge5" class="edge">
<title>Optimizer&#45;&gt;Code gen</title>
<path fill="none" stroke="#000000" d="M641.3769,-25.4558C667.0682,-25.4558 699.1855,-25.4558 726.0377,-25.4558"/>
<polygon fill="#000000" stroke="#000000" points="726.047,-28.9559 736.0469,-25.4558 726.0469,-21.9559 726.047,-28.9559"/>
<text text-anchor="middle" x="688.7266" y="-42.2558" font-family="Times,serif" font-size="14.00" fill="#000000">Optimized</text>
<text text-anchor="middle" x="688.7266" y="-28.2558" font-family="Times,serif" font-size="14.00" fill="#000000">IR</text>
</g>
<!-- Start -->
<g id="node2" class="node">
<title>Start</title>
<ellipse fill="none" stroke="#000000" cx="27" cy="-25.4558" rx="27" ry="18"/>
<text text-anchor="middle" x="27" y="-21.2558" font-family="Times,serif" font-size="14.00" fill="#000000">Start</text>
</g>
<!-- Lexer -->
<g id="node3" class="node">
<title>Lexer</title>
<ellipse fill="none" stroke="#000000" cx="159.6017" cy="-25.4558" rx="30.9532" ry="18"/>
<text text-anchor="middle" x="159.6017" y="-21.2558" font-family="Times,serif" font-size="14.00" fill="#000000">Lexer</text>
</g>
<!-- Start&#45;&gt;Lexer -->
<g id="edge1" class="edge">
<title>Start&#45;&gt;Lexer</title>
<path fill="none" stroke="#000000" d="M54.1539,-25.4558C72.6922,-25.4558 97.592,-25.4558 118.5404,-25.4558"/>
<polygon fill="#000000" stroke="#000000" points="118.77,-28.9559 128.77,-25.4558 118.7699,-21.9559 118.77,-28.9559"/>
<text text-anchor="middle" x="91.438" y="-42.2558" font-family="Times,serif" font-size="14.00" fill="#000000">Text</text>
<text text-anchor="middle" x="91.438" y="-28.2558" font-family="Times,serif" font-size="14.00" fill="#000000">(Code)</text>
</g>
<!-- Parser -->
<g id="node4" class="node">
<title>Parser</title>
<ellipse fill="none" stroke="#000000" cx="295.8517" cy="-25.4558" rx="32.415" ry="18"/>
<text text-anchor="middle" x="295.8517" y="-21.2558" font-family="Times,serif" font-size="14.00" fill="#000000">Parser</text>
</g>
<!-- Lexer&#45;&gt;Parser -->
<g id="edge2" class="edge">
<title>Lexer&#45;&gt;Parser</title>
<path fill="none" stroke="#000000" d="M190.5189,-25.4558C209.106,-25.4558 233.0237,-25.4558 253.3688,-25.4558"/>
<polygon fill="#000000" stroke="#000000" points="253.6352,-28.9559 263.6352,-25.4558 253.6351,-21.9559 253.6352,-28.9559"/>
<text text-anchor="middle" x="226.9861" y="-42.2558" font-family="Times,serif" font-size="14.00" fill="#000000">Token</text>
<text text-anchor="middle" x="226.9861" y="-28.2558" font-family="Times,serif" font-size="14.00" fill="#000000">stream</text>
</g>
<!-- Semantic\nAnalysis -->
<g id="node5" class="node">
<title>Semantic\nAnalysis</title>
<ellipse fill="none" stroke="#000000" cx="438.6584" cy="-25.4558" rx="48.3037" ry="25.4118"/>
<text text-anchor="middle" x="438.6584" y="-28.2558" font-family="Times,serif" font-size="14.00" fill="#000000">Semantic</text>
<text text-anchor="middle" x="438.6584" y="-14.2558" font-family="Times,serif" font-size="14.00" fill="#000000">Analysis</text>
</g>
<!-- Parser&#45;&gt;Semantic\nAnalysis -->
<g id="edge3" class="edge">
<title>Parser&#45;&gt;Semantic\nAnalysis</title>
<path fill="none" stroke="#000000" d="M328.2567,-25.4558C343.5973,-25.4558 362.4022,-25.4558 380.1152,-25.4558"/>
<polygon fill="#000000" stroke="#000000" points="380.3837,-28.9559 390.3837,-25.4558 380.3837,-21.9559 380.3837,-28.9559"/>
<text text-anchor="middle" x="359.2827" y="-28.2558" font-family="Times,serif" font-size="14.00" fill="#000000">AST</text>
</g>
<!-- Semantic\nAnalysis&#45;&gt;Optimizer -->
<g id="edge4" class="edge">
<title>Semantic\nAnalysis&#45;&gt;Optimizer</title>
<path fill="none" stroke="#000000" d="M486.909,-25.4558C503.2778,-25.4558 521.7113,-25.4558 538.6677,-25.4558"/>
<polygon fill="#000000" stroke="#000000" points="539.0028,-28.9559 549.0028,-25.4558 539.0028,-21.9559 539.0028,-28.9559"/>
<text text-anchor="middle" x="518.0341" y="-28.2558" font-family="Times,serif" font-size="14.00" fill="#000000">AST</text>
</g>
<!-- End -->
<g id="node7" class="node">
<title>End</title>
<ellipse fill="none" stroke="#000000" cx="922.0894" cy="-25.4558" rx="27" ry="18"/>
<text text-anchor="middle" x="922.0894" y="-21.2558" font-family="Times,serif" font-size="14.00" fill="#000000">End</text>
</g>
<!-- Code gen&#45;&gt;End -->
<g id="edge6" class="edge">
<title>Code gen&#45;&gt;End</title>
<path fill="none" stroke="#000000" d="M823.8106,-25.4558C843.2556,-25.4558 865.9118,-25.4558 884.5675,-25.4558"/>
<polygon fill="#000000" stroke="#000000" points="884.7539,-28.9559 894.7538,-25.4558 884.7538,-21.9559 884.7539,-28.9559"/>
<text text-anchor="middle" x="859.4356" y="-42.2558" font-family="Times,serif" font-size="14.00" fill="#000000">Target</text>
<text text-anchor="middle" x="859.4356" y="-28.2558" font-family="Times,serif" font-size="14.00" fill="#000000">code</text>
</g>
</g>
</svg>
