<svg width="1276" height="61pt" viewBox="0 0 957.09 61.46" xmlns="http://www.w3.org/2000/svg"><g class="graph" transform="translate(4 57.456)"><path fill="#fff" stroke="transparent" d="M-4 4v-61.456h957.09V4H-4z"/><g class="node"><ellipse fill="#add8e6" stroke="#add8e6" cx="595.218" cy="-25.456" rx="45.92" ry="18"/><text text-anchor="middle" x="595.218" y="-21.256" font-family="Times,serif" font-size="14">Optimizer</text></g><g class="node"><ellipse fill="none" stroke="#000" cx="780.028" cy="-25.456" rx="43.508" ry="18"/><text text-anchor="middle" x="780.028" y="-21.256" font-family="Times,serif" font-size="14">Code gen</text></g><g class="edge"><path fill="none" stroke="#000" d="M641.377-25.456h84.66"/><path stroke="#000" d="M726.047-28.956l10 3.5-10 3.5v-7z"/><text text-anchor="middle" x="688.727" y="-42.256" font-family="Times,serif" font-size="14">Optimized</text><text text-anchor="middle" x="688.727" y="-28.256" font-family="Times,serif" font-size="14">IR</text></g><g class="node"><ellipse fill="none" stroke="#000" cx="27" cy="-25.456" rx="27" ry="18"/><text text-anchor="middle" x="27" y="-21.256" font-family="Times,serif" font-size="14">Start</text></g><g class="node"><ellipse fill="none" stroke="#000" cx="159.602" cy="-25.456" rx="30.953" ry="18"/><text text-anchor="middle" x="159.602" y="-21.256" font-family="Times,serif" font-size="14">Lexer</text></g><g class="edge"><path fill="none" stroke="#000" d="M54.154-25.456h64.386"/><path stroke="#000" d="M118.77-28.956l10 3.5-10 3.5v-7z"/><text text-anchor="middle" x="91.438" y="-42.256" font-family="Times,serif" font-size="14">Text</text><text text-anchor="middle" x="91.438" y="-28.256" font-family="Times,serif" font-size="14">(Code)</text></g><g class="node"><ellipse fill="none" stroke="#000" cx="295.852" cy="-25.456" rx="32.415" ry="18"/><text text-anchor="middle" x="295.852" y="-21.256" font-family="Times,serif" font-size="14">Parser</text></g><g class="edge"><path fill="none" stroke="#000" d="M190.519-25.456h62.85"/><path stroke="#000" d="M253.635-28.956l10 3.5-10 3.5v-7z"/><text text-anchor="middle" x="226.986" y="-42.256" font-family="Times,serif" font-size="14">Token</text><text text-anchor="middle" x="226.986" y="-28.256" font-family="Times,serif" font-size="14">stream</text></g><g class="node"><ellipse fill="none" stroke="#000" cx="438.658" cy="-25.456" rx="48.304" ry="25.412"/><text text-anchor="middle" x="438.658" y="-28.256" font-family="Times,serif" font-size="14">Semantic</text><text text-anchor="middle" x="438.658" y="-14.256" font-family="Times,serif" font-size="14">Analysis</text></g><g class="edge"><path fill="none" stroke="#000" d="M328.257-25.456h51.858"/><path stroke="#000" d="M380.384-28.956l10 3.5-10 3.5v-7z"/><text text-anchor="middle" x="359.283" y="-28.256" font-family="Times,serif" font-size="14">AST</text></g><g class="edge"><path fill="none" stroke="#000" d="M486.909-25.456h51.759"/><path stroke="#000" d="M539.003-28.956l10 3.5-10 3.5v-7z"/><text text-anchor="middle" x="518.034" y="-28.256" font-family="Times,serif" font-size="14">AST</text></g><g class="node"><ellipse fill="none" stroke="#000" cx="922.089" cy="-25.456" rx="27" ry="18"/><text text-anchor="middle" x="922.089" y="-21.256" font-family="Times,serif" font-size="14">End</text></g><g class="edge"><path fill="none" stroke="#000" d="M823.81-25.456h60.758"/><path stroke="#000" d="M884.754-28.956l10 3.5-10 3.5v-7z"/><text text-anchor="middle" x="859.436" y="-42.256" font-family="Times,serif" font-size="14">Target</text><text text-anchor="middle" x="859.436" y="-28.256" font-family="Times,serif" font-size="14">code</text></g></g></svg>