<?xml version="1.0" encoding="UTF-8" standalone="no"?>
<!DOCTYPE svg PUBLIC "-//W3C//DTD SVG 1.1//EN"
 "http://www.w3.org/Graphics/SVG/1.1/DTD/svg11.dtd">
<!-- Generated by graphviz version 2.40.1 (20161225.0304)
 -->
<!-- Title: %3 Pages: 1 -->
<svg width="639pt" height="44pt"
 viewBox="0.00 0.00 639.03 44.00" xmlns="http://www.w3.org/2000/svg" xmlns:xlink="http://www.w3.org/1999/xlink">
<g id="graph0" class="graph" transform="scale(1 1) rotate(0) translate(4 40)">
<title>%3</title>
<polygon fill="#ffffff" stroke="transparent" points="-4,4 -4,-40 635.0313,-40 635.0313,4 -4,4"/>
<!-- pass1 -->
<g id="node1" class="node">
<title>pass1</title>
<ellipse fill="none" stroke="#000000" cx="29.7585" cy="-18" rx="29.5189" ry="18"/>
<text text-anchor="middle" x="29.7585" y="-13.8" font-family="Times,serif" font-size="14.00" fill="#000000">pass1</text>
</g>
<!-- pass2 -->
<g id="node2" class="node">
<title>pass2</title>
<ellipse fill="none" stroke="#000000" cx="125.2755" cy="-18" rx="29.5189" ry="18"/>
<text text-anchor="middle" x="125.2755" y="-13.8" font-family="Times,serif" font-size="14.00" fill="#000000">pass2</text>
</g>
<!-- pass1&#45;&#45;pass2 -->
<g id="edge1" class="edge">
<title>pass1&#45;&#45;pass2</title>
<path fill="none" stroke="#000000" d="M59.7186,-18C71.0985,-18 84.0516,-18 95.4217,-18"/>
</g>
<!-- pass3 -->
<g id="node3" class="node">
<title>pass3</title>
<ellipse fill="none" stroke="#000000" cx="220.7924" cy="-18" rx="29.5189" ry="18"/>
<text text-anchor="middle" x="220.7924" y="-13.8" font-family="Times,serif" font-size="14.00" fill="#000000">pass3</text>
</g>
<!-- pass2&#45;&#45;pass3 -->
<g id="edge2" class="edge">
<title>pass2&#45;&#45;pass3</title>
<path fill="none" stroke="#000000" d="M155.2356,-18C166.6154,-18 179.5686,-18 190.9386,-18"/>
</g>
<!-- pass4 -->
<g id="node4" class="node">
<title>pass4</title>
<ellipse fill="none" stroke="#000000" cx="316.3094" cy="-18" rx="29.5189" ry="18"/>
<text text-anchor="middle" x="316.3094" y="-13.8" font-family="Times,serif" font-size="14.00" fill="#000000">pass4</text>
</g>
<!-- pass3&#45;&#45;pass4 -->
<g id="edge3" class="edge">
<title>pass3&#45;&#45;pass4</title>
<path fill="none" stroke="#000000" d="M250.7525,-18C262.1324,-18 275.0856,-18 286.4556,-18"/>
</g>
<!-- pass5 -->
<g id="node5" class="node">
<title>pass5</title>
<ellipse fill="none" stroke="#000000" cx="411.8264" cy="-18" rx="29.5189" ry="18"/>
<text text-anchor="middle" x="411.8264" y="-13.8" font-family="Times,serif" font-size="14.00" fill="#000000">pass5</text>
</g>
<!-- pass4&#45;&#45;pass5 -->
<g id="edge4" class="edge">
<title>pass4&#45;&#45;pass5</title>
<path fill="none" stroke="#000000" d="M346.2695,-18C357.6494,-18 370.6025,-18 381.9726,-18"/>
</g>
<!-- ... -->
<g id="node6" class="node">
<title>...</title>
<ellipse fill="none" stroke="#000000" cx="504.5849" cy="-18" rx="27" ry="18"/>
<text text-anchor="middle" x="504.5849" y="-13.8" font-family="Times,serif" font-size="14.00" fill="#000000">...</text>
</g>
<!-- pass5&#45;&#45;... -->
<g id="edge5" class="edge">
<title>pass5&#45;&#45;...</title>
<path fill="none" stroke="#000000" d="M441.6863,-18C453.126,-18 466.108,-18 477.2951,-18"/>
</g>
<!-- passN -->
<g id="node7" class="node">
<title>passN</title>
<ellipse fill="none" stroke="#000000" cx="599.3081" cy="-18" rx="31.948" ry="18"/>
<text text-anchor="middle" x="599.3081" y="-13.8" font-family="Times,serif" font-size="14.00" fill="#000000">passN</text>
</g>
<!-- ...&#45;&#45;passN -->
<g id="edge6" class="edge">
<title>...&#45;&#45;passN</title>
<path fill="none" stroke="#000000" d="M531.7287,-18C542.8812,-18 555.8749,-18 567.4722,-18"/>
</g>
</g>
</svg>
