<svg width="852" height="44pt" viewBox="0 0 639.03 44" xmlns="http://www.w3.org/2000/svg"><g class="graph" transform="translate(4 40)"><g class="node"><ellipse fill="#fff" stroke="#fff" cx="29.759" cy="-18" rx="29.519" ry="18"/><text text-anchor="middle" x="29.759" y="-13.8" font-family="Times,serif" font-size="14">pass1</text></g><g class="node"><ellipse fill="#fff" stroke="#fff" cx="125.275" cy="-18" rx="29.519" ry="18"/><text text-anchor="middle" x="125.275" y="-13.8" font-family="Times,serif" font-size="14">pass2</text></g><g class="edge"><path fill="none" stroke="#fff" d="M59.719-18h35.703"/></g><g class="node"><ellipse fill="#fff" stroke="#fff" cx="220.792" cy="-18" rx="29.519" ry="18"/><text text-anchor="middle" x="220.792" y="-13.8" font-family="Times,serif" font-size="14">pass3</text></g><g class="edge"><path fill="none" stroke="#fff" d="M155.236-18h35.703"/></g><g class="node"><ellipse fill="#fff" stroke="#fff" cx="316.309" cy="-18" rx="29.519" ry="18"/><text text-anchor="middle" x="316.309" y="-13.8" font-family="Times,serif" font-size="14">pass4</text></g><g class="edge"><path fill="none" stroke="#fff" d="M250.752-18h35.704"/></g><g class="node"><ellipse fill="#fff" stroke="#fff" cx="411.826" cy="-18" rx="29.519" ry="18"/><text text-anchor="middle" x="411.826" y="-13.8" font-family="Times,serif" font-size="14">pass5</text></g><g class="edge"><path fill="none" stroke="#fff" d="M346.27-18h35.703"/></g><g class="node"><ellipse fill="#fff" stroke="#fff" cx="504.585" cy="-18" rx="27" ry="18"/><text text-anchor="middle" x="504.585" y="-13.8" font-family="Times,serif" font-size="14">...</text></g><g class="edge"><path fill="none" stroke="#fff" d="M441.686-18h35.61"/></g><g class="node"><ellipse fill="#fff" stroke="#fff" cx="599.308" cy="-18" rx="31.948" ry="18"/><text text-anchor="middle" x="599.308" y="-13.8" font-family="Times,serif" font-size="14">passN</text></g><g class="edge"><path fill="none" stroke="#fff" d="M531.729-18h35.743"/></g></g></svg>