<?xml version="1.0" encoding="UTF-8" standalone="no"?>
<!DOCTYPE svg PUBLIC "-//W3C//DTD SVG 1.1//EN"
 "http://www.w3.org/Graphics/SVG/1.1/DTD/svg11.dtd">
<!-- Generated by graphviz version 2.40.1 (20161225.0304)
 -->
<!-- Title: %3 Pages: 1 -->
<svg width="170pt" height="188pt"
 viewBox="0.00 0.00 170.00 188.00" xmlns="http://www.w3.org/2000/svg" xmlns:xlink="http://www.w3.org/1999/xlink">
<g id="graph0" class="graph" transform="scale(1 1) rotate(0) translate(4 184)">
<title>%3</title>
<polygon fill="#ffffff" stroke="transparent" points="-4,4 -4,-184 166,-184 166,4 -4,4"/>
<!-- + -->
<g id="node1" class="node">
<title>+</title>
<ellipse fill="none" stroke="#000000" cx="63" cy="-162" rx="27" ry="18"/>
<text text-anchor="middle" x="63" y="-157.8" font-family="Times,serif" font-size="14.00" fill="#000000">+</text>
</g>
<!-- 1 -->
<g id="node2" class="node">
<title>1</title>
<ellipse fill="none" stroke="#000000" cx="27" cy="-90" rx="27" ry="18"/>
<text text-anchor="middle" x="27" y="-85.8" font-family="Times,serif" font-size="14.00" fill="#000000">1</text>
</g>
<!-- +&#45;&#45;1 -->
<g id="edge1" class="edge">
<title>+&#45;&#45;1</title>
<path fill="none" stroke="#000000" d="M54.2854,-144.5708C48.6253,-133.2506 41.2784,-118.5568 35.6343,-107.2687"/>
</g>
<!-- * -->
<g id="node3" class="node">
<title>*</title>
<ellipse fill="none" stroke="#000000" cx="99" cy="-90" rx="27" ry="18"/>
<text text-anchor="middle" x="99" y="-85.8" font-family="Times,serif" font-size="14.00" fill="#000000">*</text>
</g>
<!-- +&#45;&#45;* -->
<g id="edge2" class="edge">
<title>+&#45;&#45;*</title>
<path fill="none" stroke="#000000" d="M71.7146,-144.5708C77.3747,-133.2506 84.7216,-118.5568 90.3657,-107.2687"/>
</g>
<!-- 2 -->
<g id="node4" class="node">
<title>2</title>
<ellipse fill="none" stroke="#000000" cx="63" cy="-18" rx="27" ry="18"/>
<text text-anchor="middle" x="63" y="-13.8" font-family="Times,serif" font-size="14.00" fill="#000000">2</text>
</g>
<!-- *&#45;&#45;2 -->
<g id="edge3" class="edge">
<title>*&#45;&#45;2</title>
<path fill="none" stroke="#000000" d="M90.2854,-72.5708C84.6253,-61.2506 77.2784,-46.5568 71.6343,-35.2687"/>
</g>
<!-- 3 -->
<g id="node5" class="node">
<title>3</title>
<ellipse fill="none" stroke="#000000" cx="135" cy="-18" rx="27" ry="18"/>
<text text-anchor="middle" x="135" y="-13.8" font-family="Times,serif" font-size="14.00" fill="#000000">3</text>
</g>
<!-- *&#45;&#45;3 -->
<g id="edge4" class="edge">
<title>*&#45;&#45;3</title>
<path fill="none" stroke="#000000" d="M107.7146,-72.5708C113.3747,-61.2506 120.7216,-46.5568 126.3657,-35.2687"/>
</g>
</g>
</svg>
